<?xml version="1.0" encoding="UTF-8" standalone="no"?>
<svg
   width="144.75574"
   height="139.79961"
   viewBox="0 0 144.75574 139.79961"
   version="1.1"
   id="svg33"
   xmlns="http://www.w3.org/2000/svg"
   xmlns:svg="http://www.w3.org/2000/svg">
  <defs
     id="defs33" />
  <path
     fill="#2b374a"
     d="m 50.321871,3.3001237 c 0.573,0.115 1.146,0.408 1.689,0.625 l 0.0158,11.9686703 c -13.517,5.403 -28.09954,15.25384 -36.05202,36.52317 -11.1956704,-0.34866 -2.46652,0.0138 -13.7750004,-0.32361 C 11.192741,21.495624 33.720371,8.7575037 50.321901,3.3001237 Z"
     id="path8"
     style="fill:#db0082;fill-opacity:1" />
  <path
     fill="#2b374a"
     d="m 63.976711,0.32268373 c 7.021,-0.502 14.285,-0.483 21.263,0.522 C 103.56471,3.4826837 119.66771,13.281684 130.78771,28.040684 c 11.11,14.741 15.91,33.49 13.25,51.736 -2.61,17.861 -13.15,34.500996 -27.61,45.193996 -15.651,11.579 -35.330999,16.977 -54.705999,14.041 -23.699,-3.592 -43.585,-18.611 -54.3860004,-39.910996 -1.339,-2.641 -2.593,-5.416 -3.526,-8.23 -0.85,-2.566 -1.98587,-5.76809 -2.66009,-8.28434 l -0.0844,-0.32947 C 0.55100063,78.688484 0.31502063,76.714684 2.0633214e-5,74.151684 L 0.20952063,62.898214 13.575471,62.796204 l 0.016,2.898 c 0.0328,19.85925 5.48112,33.14548 18.54412,45.476476 11.639,10.985 26.352,16.105 42.292,15.59 16.51,-0.534 31.562999,-7.822 42.769999,-19.868 9.65,-10.374996 15.01,-25.023996 14.48,-39.131996 -0.55,-15.038 -7.01,-29.755 -18.17,-39.946 -15.098999,-13.784 -31.596999,-15.356 -51.135999,-14.545 l 0.1,-12.32100027 z"
     id="path25" />
</svg>
