<?xml version="1.0" encoding="UTF-8" standalone="no"?>
<svg
   width="863.50934"
   height="424.79617"
   viewBox="0 0 863.50934 424.79617"
   version="1.1"
   id="svg33"
   xmlns="http://www.w3.org/2000/svg"
   xmlns:svg="http://www.w3.org/2000/svg">
  <defs
     id="defs33">
    <mask
       maskUnits="userSpaceOnUse"
       id="mask35">
      <g
         id="g35"
         style="display:inline">
        <rect
           style="display:inline;fill:#ffffff;fill-opacity:1;stroke-linecap:square"
           id="rect35"
           width="163.0538"
           height="178.16187"
           x="713.54736"
           y="281.52841" />
        <path
           fill="#D5D4D4"
           d="m 741.946,310.574 35.134,0.007 c 10.927,0.013 22.217,-0.848 32.783,2.422 13.311,4.121 23.977,13.182 30.403,25.527 7.201,13.833 8.372,30.997 3.548,45.799 -1.909,5.856 -6.712,16.535 -12.389,19.447 l -0.318,1.077 c -5.891,5.199 -12.402,9.002 -20.03,11.085 -10.229,2.791 -21.234,2.15 -31.746,2.161 l -36.525,-0.003 0.209,-73.487 0.039,-23.076 c -0.009,-3.239 0.531,-7.627 -0.885,-10.546 z"
           id="path35"
           style="display:inline;fill:#000000;fill-opacity:1" />
      </g>
    </mask>
    <mask
       maskUnits="userSpaceOnUse"
       id="mask38">
      <g
         id="g38"
         style="display:inline">
        <rect
           style="display:inline;fill:#ffffff;fill-opacity:1;stroke-linecap:square"
           id="rect38"
           width="439.50159"
           height="211.87128"
           x="107.3632"
           y="103.66103" />
        <path
           fill="#D5D4D4"
           d="m 273.066,163.281 c 57.665,-3.009 119.249,7.587 163.492,47.574 14.983,13.542 27.455,29.803 37.827,47.088 1.882,3.136 5.123,7.809 5.682,11.432 -1.267,0.953 -3.493,0.571 -5.029,0.53 -10.489,-2.026 -20.682,-5.936 -30.984,-8.775 -30.578,-8.426 -62.447,-16.215 -94.345,-16.015 L 316.93,233.2 c 4.917,-0.938 10.235,-0.698 15.24,-0.785 l 24.647,0.217 c 29.455,1.562 58.652,7.069 86.829,15.668 -6.161,-8.589 -12.025,-17.299 -19.377,-24.954 -39.303,-40.925 -95.797,-58.115 -151.457,-59.26 z"
           id="path38"
           style="fill:#000000;fill-opacity:1" />
      </g>
    </mask>
  </defs>
  <path
     fill="#81754f"
     d="m 516.507,91.238554 c 7.814,1.401 13.909,2.718 21.069,6.287 2.118,1.057 4.41,1.972 6.018,3.760996 -5.577,0.2 -13.324,1.077 -18.379,-1.759996 l -0.37,-0.21 c -3.395,-1.858 -5.834,-5.186 -8.338,-8.078 z"
     id="path2"
     style="fill:#db0082;fill-opacity:1" />
  <path
     fill="#81754f"
     d="m 288.271,77.894554 c 3.756,2.909 6.895,6.7 10.056,10.23 7.936,8.862 15.314,18.510996 21.177,28.876996 1.69,2.988 4.182,6.833 4.617,10.252 l 0.028,0.287 c -1.286,0.874 -2.122,1.103 -3.67,1.168 -3.718,-3.185 -6.303,-9.889 -8.665,-14.182 L 301.672,97.583554 c -2.131,-3.313 -4.237,-6.715 -6.608,-9.861 -2.429,-3.223 -5.099,-6.123 -6.793,-9.828 z"
     id="path3"
     style="fill:#d4af37;fill-opacity:1" />
  <path
     fill="#81754f"
     d="m 498.313,103.20355 c -26.686,-4.720996 -52.026,-4.380996 -78.411,2.167 -6.068,1.506 -11.987,3.441 -17.903,5.449 -1.276,0.434 -5.253,2.279 -6.383,2.176 -0.344,-0.031 -0.621,-0.303 -0.931,-0.454 l 0.34,-0.261 c 3.826,-2.538 10.265,-4.275 14.646,-5.791 19.673,-6.808996 41.65,-11.257996 62.507,-10.934996 7.217,0.111 13.896,1.175 21.014,2.158 z"
     id="path5"
     style="fill:#d4af37;fill-opacity:1" />
  <path
     fill="#2b374a"
     d="m 231.07981,251.64882 17.7809,0.125 -3.20248,12.701 -14.46242,-0.121 z"
     id="path7" />
  <path
     fill="#2b374a"
     d="m 647.70987,193.11026 c 0.573,0.115 1.146,0.408 1.689,0.625 l 0.0158,11.96867 c -13.517,5.403 -28.09954,15.25384 -36.05202,36.52317 -11.19567,-0.34866 -2.46652,0.0138 -13.775,-0.32361 8.99309,-30.59773 31.52072,-43.33585 48.12225,-48.79323 z"
     id="path8"
     style="fill:#db0082;fill-opacity:1" />
  <path
     fill="#81754f"
     d="m 498.995,364.98455 c 3.871,0.166 7.518,0.36 11.228,1.604 8.974,3.009 15.755,10.537 22.662,16.681 -9.408,0.475 -18.518,0.734 -27.89,-0.572 -11.413,-1.695 -21.946,-5.389 -33.581,-5.607 8.862,-6.845 16.089,-11.335 27.581,-12.106 z"
     id="path9"
     style="fill:#bcb88a;fill-opacity:1" />
  <path
     fill="#81754f"
     d="m 469.543,72.576554 c 3.256,1.897 6.03,4.063 8.744,6.67 -34.97,-0.577 -66.202,7.306 -97.82,21.989996 l -18.986,9.426 c -3.372,1.717 -7.003,3.951 -10.612,5.052 l 0.431,-0.517 c 3.656,-4.297 8.811,-7.749 13.463,-10.874 22.671,-15.226996 51.497,-24.823996 78.353,-29.376996 8.858,-1.501 17.539,-1.583 26.427,-2.37 z"
     id="path10"
     style="fill:#2b374a;fill-opacity:1" />
  <path
     fill="#81754f"
     d="m 390.07,143.05855 c 4.279,-13.65 14.178,-23.874 26.714,-30.423 19.072,-9.964 43.798,-14.895996 64.666,-8.228 2.884,0.921 6.082,2.321 8.576,4.03 -5.541,-0.833 -10.921,-1.938 -16.542,-2.141 -19.401,-0.7 -41.492,4.576 -57.288,16.214 -10.597,7.806 -16.272,17.339 -21.667,29.085 -1.089,-3.235 -2.302,-5.866 -4.459,-8.537 z"
     id="path11"
     style="fill:#2b374a;fill-opacity:1" />
  <path
     fill="#2b374a"
     d="m 390.07,143.05855 c 2.157,2.671 3.37,5.302 4.459,8.537 -11.947,32.793 -26.683,62.254 -56.978,81.754 -0.02,-1.838 -0.714,-8.816 -0.111,-10.222 0.539,-1.258 6.941,-5.35 8.351,-6.544 5.629,-4.766 10.783,-10.066 15.447,-15.775 14.222,-17.408 21.406,-36.873 28.832,-57.75 z"
     id="path12" />
  <path
     fill="#81754f"
     d="m 301.377,39.784554 c 4.089,2.382 7.457,6.118 10.727,9.49 13.893,14.327 27.274,34.105 32.382,53.588996 l 0.445,1.768 c 7.038,-4.018 16.306,-9.025996 24.432,-9.716996 -0.055,1.134 -0.902,1.757 -1.725,2.502 -2.553,2.312 -6.164,4.113996 -9.112,5.954996 -8.198,5.12 -15.889,10.658 -21.633,18.535 -6.081,-2.662 -13.324,-7.231 -17.738,-12.215 2.235,-3.252 6.6,-9.39 7.51,-13.127996 0.739,-3.038 0.131,-7.06 -0.395,-10.094 -2.199,-12.699 -8.439,-24.456 -15.836,-34.858 -2.751,-3.869 -6.462,-7.281 -8.803,-11.373 z"
     id="path13"
     style="fill:#d4af37;fill-opacity:1" />
  <path
     fill="#2b374a"
     d="m 207.93081,191.35582 69.94886,0.179 -11.04096,13.792 -58.8079,-0.167 z"
     id="path14" />
  <path
     fill="#81754f"
     d="m 287.085,267.02955 c 0.83,2.403 -0.726,7.349 -1.017,9.962 l -0.965,15.653 c -0.252,17.584 2.454,35.562 8.966,51.947 9.649,24.275 27.656,44.406 51.859,54.793 32.747,14.052 68.018,7.637 100,-5.037 l 0.35,0.387 -3.268,1.845 -0.283,0.149 c -28.451,14.295 -59.064,19.428 -89.873,9.603 -25.548,-8.147 -46.528,-23.823 -58.932,-47.914 -14.513,-28.189 -16.452,-61.323 -6.837,-91.388 z"
     id="path15"
     style="fill:#bcb88a;fill-opacity:1" />
  <path
     fill="#2b374a"
     d="m 319.155,109.69155 -9.05,-11.207996 c 2.445,-1.703 5.329,-3.921 6.593,-6.699 3.026,-6.654 0.206,-15.357 -2.323,-21.743 -13.207,-33.351 -44.052,-48.539 -74.86,-61.9310003 32.441,6.0780003 65.007,13.7960003 90.394,36.3720003 12.538,11.15 21.77,23.771 29.572,38.543 1.428,2.704 3.928,6.714 4.11,9.793 l -2.663,1.882 c -0.376,-0.136 -0.809,-0.167 -1.129,-0.407 -1.831,-1.368 -4.648,-7.409 -6.022,-9.545 -4.433,-6.894 -9.444,-13.507 -14.813,-19.7 -13.672,-15.768 -30.079,-26.825 -48.808,-35.732 l 11.221,10.468 0.254,0.454 c 2.341,4.092 6.052,7.504 8.803,11.373 7.397,10.402 13.637,22.159 15.836,34.858 0.526,3.034 1.134,7.056 0.395,10.094 -0.91,3.737996 -5.275,9.875996 -7.51,13.127996 z"
     id="path16" />
  <path
     fill="#2b374a"
     d="m 406.45899,191.65082 13.574,-0.019 0.005,135.63 -13.504,-0.037 z"
     id="path17" />
  <path
     fill="#2b374a"
     d="m 762.46617,191.23282 14.80996,0.055 0.14,93.159 0.11,27.236 c 0.03,4.329 0.46,9.164 0.01,13.45 -0.08,0.759 -0.47,1.453 -0.88,2.083 l -13.24996,0.035 -0.06,-93.417 -0.02,-27.131 c -0.01,-4.333 0.39,-9.168 -0.05,-13.444 -0.08,-0.733 -0.43,-1.407 -0.81,-2.026 z"
     id="path18" />
  <path
     fill="#2b374a"
     d="m 325.667,228.39482 0.84,0.801 -0.165,83.671 58.873,-0.018 -13.043,14.618 -59.648,-0.098 0.044,-84.248 c 3.148,-5.379 8.667,-10.366 13.099,-14.726 z"
     id="path19" />
  <path
     fill="#2b374a"
     d="m 207.80381,251.89682 13.863,-0.023 0.065,61.087 21.26113,0.007 2.49972,14.393 -37.43085,-0.044 z"
     id="path20" />
  <path
     fill="#2b374a"
     d="m 469.543,72.576554 c -10.352,-5.833 -20.951,-10.129 -32.199,-13.894 -1.892,-0.633 -4.609,-1.127 -6.122,-2.391 2.122,-1.623 7.845,-0.586 10.606,-0.217 12.015,1.605 23.752,5.615 34.668,10.826 3.844,1.835 8.037,3.71 11.482,6.242 3.976,2.922 7.162,8.534 10.324,12.399 6.777,8.282 20.468,19.546996 31.123,21.478996 5.167,0.937 11.094,-0.093 16.236,-0.788 l 11.459,-1.553 c 1.502,-0.21 3.401,-0.226 4.722,-0.945 -7.425,-6.534996 -16.288,-9.571996 -23.909,-15.772996 -1.433,-1.166 -2.975,-2.701 -4.79,-3.184 -6.793,-1.807 -14.48,-0.554 -21.445,-1.89 -3.9,-0.749 -8.335,-1.966 -11.795,-3.921 -9.952,-5.625 -19.039,-15.351 -26.844,-23.596 -3.521,-3.718 -7.52,-7.447 -10.616,-11.513 16.345,10.029 31.394,26.418 51.649,27.574 1.953,0.111 4.692,0.496 6.595,0.162 l 0.643,-0.213 -19.319,-14.322 c 8.695,2.314 17.167,4.67 24.455,10.239 5.286,4.04 9.126,9.8 14.307,13.994 3.23,2.615 7.052,4.189 10.793,5.914 l -4.243,-14.631 c 3.291,5.545 6.518,11.034 10.951,15.767 4.076,4.35 9.657,8.018 13.093,12.807996 3.643,5.078 3.907,11.735 4.027,17.774 -5.702,-3.988 -10.172,-6.219 -17.301,-4.96 -4.259,0.752 -8.465,2.132 -12.79,2.396 -5.015,0.306 -10.379,-0.691 -15.318,-1.496 -8.454,-1.378 -16.199,-2.265 -23.431,-7.273 -2.736,-1.895 -5.087,-3.271 -8.241,-4.387 l -5.121,-5.490996 c -4.406,-7.189 -8.449,-12.937 -14.905,-18.466 -2.714,-2.607 -5.488,-4.773 -8.744,-6.67 z"
     id="path21" />
  <path
     fill="#81754f"
     d="m 304.988,299.52855 3.612,15.111 c 3.592,12.559 9.925,24.607 17.742,35.043 13.68,18.263 34.156,30.552 56.745,33.782 26.067,3.727 52.593,-2.262 74.681,-16.53 6.817,-4.404 12.905,-9.726 19.41,-14.541 19.33,-14.308 40.071,-15.237 60.223,-1.794 6.644,4.432 12.287,10.142 19.5,13.767 6.406,3.219 13.053,4.643 20.086,5.698 -4.365,2.605 -8.651,4.805 -13.737,5.505 l -0.434,0.213 c -2.736,0.922 -6.942,0.707 -9.735,0.381 -11.594,-1.353 -23.626,-7.276 -33.992,-12.485 l 20.246,3.075 c -4.805,-3.551 -11.937,-6.097 -17.631,-8.031 -5.604,-1.903 -11.702,-3.291 -17.65,-3.254 -19.265,0.121 -33.997,13.579 -50.502,21.533 -16.641,8.02 -35.648,13.49 -54.201,13.483 -25.244,-0.009 -49.886,-7.951 -67.963,-26.14 -16.354,-16.455 -26.48,-41.604 -26.4,-64.816 z"
     id="path22"
     style="fill:#bcb88a;fill-opacity:1" />
  <path
     fill="#2b374a"
     d="m 786.40618,191.55982 25.43992,0.024 c 14.66,0.076 29.02,-0.101 40.26,10.892 7.9,7.728 11.29,18.899 11.4,29.757 0.12,10.743 -3.1,21.504 -10.78,29.307 -8.9,9.036 -19.99,11.451 -32.2,11.576 l 40.77,54.238 -15.58,-0.016 c -0.6,-0.107 -1.18,-0.322 -1.62,-0.756 -1.75,-1.719 -3.3,-4.333 -4.77,-6.319 l -9.24,-12.353 -36.07992,-47.449 19.68992,0.081 c 10.46,-0.056 21.77,0.228 29.86,-7.669 5.48,-5.349 7.28,-12.323 7.34,-19.736 0.06,-7.811 -1.47,-15.578 -7.28,-21.281 -8.11,-7.958 -21.64,-6.414 -32.06,-6.451 l -24.02992,-0.038 c -0.02,-4.042 0.52,-9.592 -0.93,-13.332 z"
     id="path23" />
  <path
     fill="#2b374a"
     d="m 371.654,132.92955 0.708,0.349 c -23.036,15.264 -44.334,32.534 -63.298,52.661 -30.614,32.491 -51.187,73.841 -49.637,119.123 1.053,30.769 15.149,62.531 37.65,83.544 33.216,31.021 81.09,37.326 123.562,24.554 5.111,-1.536 10.192,-3.246 15.136,-5.258 3.465,-1.409 9.866,-5.43 13.351,-5.548 -1.632,1.813 -4.738,3.208 -6.859,4.483 l -18.799,8.758 c -33.28,12.391 -70.212,12.844 -102.777,-2.182 -30.222,-13.945 -51.892,-40.258 -63.174,-71.235 -13.288,-36.482 -8.944,-77.99 7.383,-112.723 21.527,-45.794 59.26,-79.379 106.754,-96.526 z"
     id="path24" />
  <path
     fill="#2b374a"
     d="m 661.36471,190.13282 c 7.021,-0.502 14.285,-0.483 21.263,0.522 18.325,2.638 34.428,12.437 45.548,27.196 11.11,14.741 15.91,33.49 13.25,51.736 -2.61,17.861 -13.15,34.501 -27.61,45.194 -15.651,11.579 -35.331,16.977 -54.706,14.041 -23.699,-3.592 -43.585,-18.611 -54.386,-39.911 -1.339,-2.641 -2.593,-5.416 -3.526,-8.23 -0.85,-2.566 -1.98587,-5.76809 -2.66009,-8.28434 l -0.0844,-0.32947 c -0.51422,-3.56839 -0.7502,-5.54219 -1.0652,-8.10519 l 0.2095,-11.25347 13.36595,-0.10201 0.016,2.898 c 0.0328,19.85925 5.48112,33.14548 18.54412,45.47648 11.639,10.985 26.352,16.105 42.292,15.59 16.51,-0.534 31.563,-7.822 42.77,-19.868 9.65,-10.375 15.01,-25.024 14.48,-39.132 -0.55,-15.038 -7.01,-29.755 -18.17,-39.946 -15.099,-13.784 -31.597,-15.356 -51.136,-14.545 l 0.1,-12.321 z"
     id="path25" />
  <path
     fill="#2b374a"
     d="m 120.50805,191.91482 77.227,-0.362 c -1.555,1.876 -10.289,13.273 -11.514,13.754 -1.965,0.773 -7.697,-0.004 -10.108,-0.005 l -37.559,0.01 c -7.436,0.011 -15.454,-0.609 -22.744,0.847 -4.91,0.98 -8.631,3.707 -11.335,7.884 -3.582,5.533 -4.666003,13.648 -3.245,20.068 3.718,16.804 20.642,16.155 34.311,16.223 9.545,0.047 19.774,-0.709 29.247,0.308 5.627,0.604 11.253,2.482 16.048,5.487 7.148,4.479 11.333,12.122 13.136,20.204 2.504,11.222 0.872,26.578 -5.37,36.248 -5.254,8.139 -12.547,11.958 -21.758,13.923 -10.108,1.391 -20.633,0.803 -30.824,0.81 l -48.488003,-0.009 4.216,-5.412 c 1.557,-1.945 5.71,-8.153 7.577,-9.161 1.226003,-0.662 9.522003,-0.019 11.308003,-0.022 l 33.001,-0.087 c 6.616,-0.029 13.668,0.316 20.234,-0.508 5.407,-0.678 10.925,-2.99 14.189,-7.525 4.469,-6.21 5.477,-15.922 4.266,-23.354 -0.855,-5.251 -3.234,-10.828 -7.92,-13.727 -6.053,-3.745 -13.107,-3.338 -19.919,-3.346 -16.473,-0.02 -40.038,2.921 -54.052,-7.672 -7.058003,-5.336 -10.169003,-12.996 -11.282003,-21.507 -1.394,-10.661 0.071,-22.576 6.877,-31.248 6.218003,-7.922 14.921003,-10.585 24.481003,-11.821 z"
     id="path26" />
  <path
     fill="#2b374a"
     d="m 727.785,296.817 41.24,-0.022 c 14.562,0 29.084,-0.976 43.215,3.209 16.622,4.922 30.774,16.352 39.038,31.627 8.917,16.482 11.018,36.045 5.596,54.042 -2.329,7.732 -5.972,15.001 -10.811,21.463 -1.693,2.262 -3.349,4.581 -5.887,5.948 -0.205,0.626 -0.543,1.235 -0.995,1.716 -2.695,2.87 -6.684,5.509 -10.034,7.592 -18.734,11.65 -38.56,10.109 -59.717,10.122 l -40.677,-0.001 0.053,-94.617 -0.031,-28.236 c -0.008,-3.679 0.696,-9.132 -0.782,-12.428 z"
     id="path27"
     style="display:inline"
     mask="url(#mask35)"
     transform="translate(-281.32223,-105.17918)" />
  <path
     fill="#2b374a"
     d="m 504.387,302.175 -45.71,39.474 16.42,-26.337 c -0.948,-0.932 -1.326,-1.243 -2.628,-1.628 -5.206,-1.539 -10.433,-1.025 -15.732,-0.465 -22.702,2.397 -44.706,12.957 -64.559,23.599 3.039,-6.244 6.123,-12.247 10.338,-17.791 4.058,-5.335 9.169,-10.105 13.881,-14.868 -21.328,-3.884 -41.127,-1.525 -61.561,5.57 4.842,-6.844 10.153,-13.86 12.185,-22.162 1.678,-6.855 1.048,-14.008 -2.674,-20.078 -10.786,-17.589 -50.925,-27.456 -69.887,-31.46 l -21.822,-4.063 26.146,-4.45 c 7.473,-1.169 15.164,-1.588 22.534,-3.312 2.298,-0.538 4.685,-1.05 6.33,-2.859 0.681,-1.708 1.1,-2.268 0.561,-4.081 -3.108,-10.447 -15.917,-19.339 -25.074,-24.199 -37.671,-19.991 -82.342,-13.092 -121.251,-1.107 8.974,-6.165 17.163,-12.862 26.695,-18.265 32.514,-18.433 70.892,-23.166 107.637,-21.096 44.851,2.527 89.966,18.576 124.519,47.62 10.749,9.036 20.082,19.381 29.42,29.824 1.694,3.705 4.364,6.605 6.793,9.828 2.371,3.146 4.477,6.548 6.608,9.861 l 10.142,16.943 c 2.362,4.293 4.947,10.997 8.665,14.182 -35.737,0.55 -71.709,-3.665 -106.149,8.877 -2.657,0.967 -8.69,2.693 -10.551,4.582 l 57.033,-0.026 c 18.613,-2.71 37.672,-1.692 56.373,-3.326 8.838,-0.772 17.956,-2.746 26.638,-4.549 -6.936,5.195 -13.857,11.413 -21.32,15.762 z"
     id="path29"
     style="display:inline;fill:#2b374a;fill-opacity:1"
     mask="url(#mask38)"
     transform="translate(-181.884,-152.14645)" />
  <path
     fill="#81754f"
     d="m 260.812,142.14155 c 18.613,-2.71 37.672,-1.692 56.373,-3.326 8.838,-0.772 17.956,-2.746 26.638,-4.549 -6.936,5.195 -13.857,11.413 -21.32,15.762 -7.112,-1.773 -13.927,4.531 -20.515,5.534 -1.26,0.192 -3.738,-0.761 -5.06,-1.017 -2.851,-0.552 -5.826,-0.741 -8.727,-0.743 -18.674,-0.015 -37.171,-2.03725 -54.111,5.85275 6.55,-8.381 14.161,-8.21875 23.277,-13.56175 2.079,-1.219 2.83,-1.586 3.445,-3.952 z"
     id="path30"
     style="fill:#d4af37;fill-opacity:1" />
  <path
     fill="#81754f"
     d="m 167.825,92.968554 c 31.898,-0.2 63.767,7.588996 94.345,16.014996 10.302,2.839 20.495,6.749 30.984,8.775 l -31.496,2.169 c -23.066,2.092 -45.638,6.802 -66.03,18.132 0.102,-5.371 0.537,-11.104 -0.733,-16.347 -3.451,-14.25 -15.403,-21.672 -27.07,-28.743996 z"
     id="path31"
     style="fill:#d4af37;fill-opacity:1" />
  <path
     fill="#81754f"
     d="m 150.286,80.268554 c 1.743,-0.184 3.615,-0.135 5.018,-1.282 0.399,-3.237 0.616,-6.554 0.315,-9.812 -0.909,-9.839 -9.419,-18.98 -16.702,-25.089 -25.549,-21.431 -59.761003,-25.857 -91.806003,-22.997 13.63,-4.839 29.455,-10.272 44.071,-9.954 l -0.254,0.805 c 55.660003,1.145 112.154003,18.335 151.457003,59.26 7.352,7.655 13.216,16.365 19.377,24.954 -28.177,-8.599 -57.374,-14.106 -86.829,-15.668 z"
     id="path33"
     style="fill:#d4af37;fill-opacity:1" />
</svg>
