<?xml version="1.0" encoding="UTF-8" standalone="no"?>
<svg
   width="106.51117"
   height="103.26944"
   viewBox="0 0 106.51117 103.26944"
   version="1.1"
   id="svg33"
   xmlns="http://www.w3.org/2000/svg"
   xmlns:svg="http://www.w3.org/2000/svg">
  <defs
     id="defs33">
    <clipPath
       clipPathUnits="userSpaceOnUse"
       id="clipPath1">
      <ellipse
         style="fill:#ac9d93;fill-opacity:1;stroke-width:0.446988;stroke-linecap:square"
         id="ellipse2"
         cx="711.93451"
         cy="201.58421"
         rx="53.255589"
         ry="51.63472" />
    </clipPath>
  </defs>
  <ellipse
     style="fill:#ffffff;fill-opacity:1;stroke-width:0.446988;stroke-linecap:square"
     id="path39"
     cx="53.255589"
     cy="51.63472"
     rx="53.255589"
     ry="51.63472" />
  <g
     id="g44"
     clip-path="url(#clipPath1)"
     transform="translate(-658.67892,-149.94949)">
    <path
       fill="#81754f"
       d="m 698.391,196.41773 c 7.814,1.401 13.909,2.718 21.069,6.287 2.118,1.057 4.41,1.972 6.018,3.761 -5.577,0.2 -13.324,1.077 -18.379,-1.76 l -0.37,-0.21 c -3.395,-1.858 -5.834,-5.186 -8.338,-8.078 z"
       id="path2"
       style="fill:#db0082;fill-opacity:1" />
    <path
       fill="#81754f"
       d="m 680.197,208.38273 c -26.686,-4.721 -52.026,-4.381 -78.411,2.167 -6.068,1.506 -11.987,3.441 -17.903,5.449 -1.276,0.434 -5.253,2.279 -6.383,2.176 -0.344,-0.031 -0.621,-0.303 -0.931,-0.454 l 0.34,-0.261 c 3.826,-2.538 10.265,-4.275 14.646,-5.791 19.673,-6.809 41.65,-11.258 62.507,-10.935 7.217,0.111 13.896,1.175 21.014,2.158 z"
       id="path5"
       style="fill:#d4af37;fill-opacity:1" />
    <path
       fill="#81754f"
       d="m 571.954,248.23773 c 4.279,-13.65 14.178,-23.874 26.714,-30.423 19.072,-9.964 43.798,-14.896 64.666,-8.228 2.884,0.921 6.082,2.321 8.576,4.03 -5.541,-0.833 -10.921,-1.938 -16.542,-2.141 -19.401,-0.7 -41.492,4.576 -57.288,16.214 -10.597,7.806 -16.272,17.339 -21.667,29.085 -1.089,-3.235 -2.302,-5.866 -4.459,-8.537 z"
       id="path11"
       style="fill:#2b374a;fill-opacity:1" />
    <path
       fill="#2b374a"
       d="m 651.427,177.75573 c -10.352,-5.833 -20.951,-10.129 -32.199,-13.894 -1.892,-0.633 -4.609,-1.127 -6.122,-2.391 2.122,-1.623 7.845,-0.586 10.606,-0.217 12.015,1.605 23.752,5.615 34.668,10.826 3.844,1.835 8.037,3.71 11.482,6.242 3.976,2.922 7.162,8.534 10.324,12.399 6.777,8.282 20.468,19.547 31.123,21.479 5.167,0.937 11.094,-0.093 16.236,-0.788 l 11.459,-1.553 c 1.502,-0.21 3.401,-0.226 4.722,-0.945 -7.425,-6.535 -16.288,-9.572 -23.909,-15.773 -1.433,-1.166 -2.975,-2.701 -4.79,-3.184 -6.793,-1.807 -14.48,-0.554 -21.445,-1.89 -3.9,-0.749 -8.335,-1.966 -11.795,-3.921 -9.952,-5.625 -19.039,-15.351 -26.844,-23.596 -3.521,-3.718 -7.52,-7.447 -10.616,-11.513 16.345,10.029 31.394,26.418 51.649,27.574 1.953,0.111 4.692,0.496 6.595,0.162 l 0.643,-0.213 -19.319,-14.322 c 8.695,2.314 17.167,4.67 24.455,10.239 5.286,4.04 9.126,9.8 14.307,13.994 3.23,2.615 7.052,4.189 10.793,5.914 l -4.243,-14.631 c 3.291,5.545 6.518,11.034 10.951,15.767 4.076,4.35 9.657,8.018 13.093,12.808 3.643,5.078 3.907,11.735 4.027,17.774 -5.702,-3.988 -10.172,-6.219 -17.301,-4.96 -4.259,0.752 -8.465,2.132 -12.79,2.396 -5.015,0.306 -10.379,-0.691 -15.318,-1.496 -8.454,-1.378 -16.199,-2.265 -23.431,-7.273 -2.736,-1.895 -5.087,-3.271 -8.241,-4.387 l -5.121,-5.491 c -4.406,-7.189 -8.449,-12.937 -14.905,-18.466 -2.714,-2.607 -5.488,-4.773 -8.744,-6.67 z"
       id="path21" />
  </g>
</svg>
